<mxfile compressed="false" version="17.4.2" type="device">
<diagram id="a" name="Page-1">
  <mxGraphModel dx="532" dy="766" grid="1" gridSize="10" guides="1" tooltips="1" connect="1" arrows="1" fold="1" page="1" pageScale="1" pageWidth="413" pageHeight="583" math="0" shadow="0">
    <root>
      <mxCell id="0" />
      <mxCell id="1" parent="0" />
      <mxCell id="box1" value="branch" style="rounded=0;whiteSpace=wrap;html=1;fillColor=#dae8fc;strokeColor=#6c8ebf;" parent="1" vertex="1">
        <mxGeometry x="320" y="20" width="80" height="20" as="geometry" />
      </mxCell>
    <mxCell id="l5" value="" style="endArrow=none;html=1;rounded=1;entryX=0;entryY=0.5;entryDx=0;entryDy=0;" edge="1" parent="1" target="b2">
      <mxGeometry width="50" height="50" relative="1" as="geometry">
        <mxPoint x="0" y="30" as="sourcePoint" />
        <mxPoint x="20" y="30" as="targetPoint" />
      </mxGeometry>
    </mxCell>
      <mxCell id="b2" value="a" style="ellipse;whiteSpace=wrap;html=1;fillColor=#dae8fc;strokeColor=#6c8ebf;" vertex="1" parent="1">
        <mxGeometry x="20" y="20" width="20" height="20" as="geometry" />
      </mxCell>
    <mxCell id="l6" value="" style="endArrow=none;html=1;rounded=1;exitX=1;exitY=0.5;exitDx=0;exitDy=0;entryX=0;entryY=0.5;entryDx=0;entryDy=0;" edge="1" parent="1" source="b2" target="b3">
      <mxGeometry width="50" height="50" relative="1" as="geometry">
        <mxPoint x="40" y="30" as="sourcePoint" />
        <mxPoint x="60" y="30" as="targetPoint" />
      </mxGeometry>
    </mxCell>
      <mxCell id="b3" value="b" style="ellipse;whiteSpace=wrap;html=1;fillColor=#dae8fc;strokeColor=#6c8ebf;" vertex="1" parent="1">
        <mxGeometry x="60" y="20" width="20" height="20" as="geometry" />
      </mxCell>
    <mxCell id="l7" value="" style="endArrow=none;html=1;rounded=1;exitX=1;exitY=0.5;exitDx=0;exitDy=0;entryX=0;entryY=0.5;entryDx=0;entryDy=0;" edge="1" parent="1" source="b3" target="b4">
      <mxGeometry width="50" height="50" relative="1" as="geometry">
        <mxPoint x="80" y="30" as="sourcePoint" />
        <mxPoint x="100" y="30" as="targetPoint" />
      </mxGeometry>
    </mxCell>
      <mxCell id="b4" value="c" style="ellipse;whiteSpace=wrap;html=1;fillColor=#dae8fc;strokeColor=#6c8ebf;" vertex="1" parent="1">
        <mxGeometry x="100" y="20" width="20" height="20" as="geometry" />
      </mxCell>
      </root>
    </mxGraphModel>
  </diagram>
</mxfile>